<svg id="Capa_1" xmlns="http://www.w3.org/2000/svg" viewBox="0 0 512 512"><style>.st0{fill:#43bd5f}</style><path class="st0" d="M256 512c141.4 0 256-114.6 256-256S397.4 0 256 0 0 114.6 0 256s114.6 256 256 256zm0-489.3c128.6 0 233.2 104.6 233.2 233.3 0 128.6-104.6 233.3-233.2 233.3C127.4 489.2 22.8 384.6 22.8 256 22.8 127.4 127.4 22.7 256 22.7z"/><path class="st0" d="M248 272.9H57.8C66.4 374.8 152 455.1 256 455.1c109.8 0 199.1-89.3 199.1-199.1S365.8 56.9 256 56.9C153 56.9 68 135.6 57.9 236H248l-14.6-14.6c-7.2-7.2-7.2-18.9 0-26.1 7.2-7.2 18.9-7.2 26.1 0l46.1 46.1 13 13-13 13-43 43c-3.6 3.6-8.3 5.4-13 5.4-4.7 0-9.4-1.8-13-5.4-7.2-7.2-7.2-18.9 0-26.1l11.4-11.4z"/></svg>